# xmcd
#
# Track frame offsets: 
#        150
#        13516
#        26201
#        40865
#        52959
#        69082
#        81817
#        95395
#        108544
#        122662
#        135267
#        148656
#        162612
#        176705
#        190485
#        204282
#        216675
#        229283
#        242376
#        255089
#
# Disc length: 3562 seconds
#
# Revision: 2
# Processed by: cddbd v1.5.2PL0 Copyright (c) Steve Scherf et al.
# Submitted via: ExactAudioCopyFreeDBPlugin 1.0
#
DISCID=130de814
DTITLE=Various Artist - Blues Selection - Vol. 03
DYEAR=2006
DGENRE=Blues
TTITLE0=Jimmy Yancey - Two O'Clock Blues (1939)
TTITLE1=Big Joe Williams - Please Don't Go (1941)
TTITLE2=Huddie 'Leadbelly' Ledbetter - The Bourgeois Blues (1939)
TTITLE3=Kokomo Arnold - My Gal's Been Foolin' Me (1936)
TTITLE4=Big Bill Broonzy - The Southern Blues (1935)
TTITLE5=Big bill broonzy - W.P.A. Rag (1938)
TTITLE6=Josh White - Stormy Weather No. 1 (1934)
TTITLE7=Bessie Smith - Blue Spirit Blues (1929)
TTITLE8=Bessie Smith - Black Mountain Blues (1930)
TTITLE9=Champion Jack Dupree - Warehouse Man Blues
TTITLE10=Leroy Carr - Good Woman Blues
TTITLE11=Blind Boy Fuller - I'm A Rattlesnakin' Daddy
TTITLE12=Kokomo Arnold - Milk Cow Blues
TTITLE13=Mary Johnson - Delmar Avenue (1936)
TTITLE14=Alice Moore - Money Tree Man (1936)
TTITLE15=John Lee 'Sonny Boy' Williamson - My Black Name Blues (1941)
TTITLE16=John Lee 'Sonny Boy' Williamson - Black Gal Blues (1937)
TTITLE17=Blind Willie McTell - Love-Makin' Mama (1933)
TTITLE18=Sleepy John Estes - New Someday Baby (1938)
TTITLE19=Sonny Terry - New Love Blues (1938)
EXTD=
EXTT0=
EXTT1=
EXTT2=
EXTT3=
EXTT4=
EXTT5=
EXTT6=
EXTT7=
EXTT8=
EXTT9=
EXTT10=
EXTT11=
EXTT12=
EXTT13=
EXTT14=
EXTT15=
EXTT16=
EXTT17=
EXTT18=
EXTT19=
PLAYORDER=
